<svg xmlns="http://www.w3.org/2000/svg" viewBox="0 0 240 60" fill="none">
  <path d="M10 45 Q20 35, 30 35 T50 35 T70 35 T90 35 T110 35 T130 35 T150 35 T170 35 T190 35 Q200 35, 210 45" stroke="#1e40af" stroke-width="3.5" stroke-linecap="round" stroke-linejoin="round" fill="none"/>
  <line x1="30" y1="35" x2="30" y2="55" stroke="#1e40af" stroke-width="2.5"/>
  <line x1="70" y1="35" x2="70" y2="55" stroke="#1e40af" stroke-width="2.5"/>
  <line x1="110" y1="35" x2="110" y2="55" stroke="#1e40af" stroke-width="2.5"/>
  <line x1="150" y1="35" x2="150" y2="55" stroke="#1e40af" stroke-width="2.5"/>
  <line x1="190" y1="35" x2="190" y2="55" stroke="#1e40af" stroke-width="2.5"/>
  <path d="M12 18 L8 25 L12 32" stroke="#3b82f6" stroke-width="3" stroke-linecap="round" stroke-linejoin="round" fill="none"/>
  <path d="M228 18 L232 25 L228 32" stroke="#3b82f6" stroke-width="3" stroke-linecap="round" stroke-linejoin="round" fill="none"/>
  <g stroke="#3b82f6" stroke-width="2.5" stroke-linecap="round">
    <line x1="45" y1="22" x2="55" y2="22"/>
    <line x1="45" y1="26" x2="55" y2="26"/>
    <line x1="85" y1="22" x2="95" y2="22"/>
    <line x1="85" y1="26" x2="95" y2="26"/>
    <line x1="125" y1="22" x2="135" y2="22"/>
    <line x1="125" y1="26" x2="135" y2="26"/>
    <line x1="165" y1="22" x2="175" y2="22"/>
    <line x1="165" y1="26" x2="175" y2="26"/>
  </g>
  <g stroke="#60a5fa" stroke-width="1.5" stroke-opacity="0.5">
    <line x1="30" y1="35" x2="50" y2="24"/>
    <line x1="70" y1="35" x2="90" y2="24"/>
    <line x1="110" y1="35" x2="130" y2="24"/>
    <line x1="150" y1="35" x2="170" y2="24"/>
  </g>
  <circle cx="20" cy="25" r="1.5" fill="#3b82f6" opacity="0.8"/>
  <circle cx="220" cy="25" r="1.5" fill="#3b82f6" opacity="0.8"/>
</svg>
